<svg version="1.1" xmlns="http://www.w3.org/2000/svg" viewBox="0 0 1708.5685125851528 757.3706768475406" width="1708.5685125851528" height="757.3706768475406">
  <!-- svg-source:excalidraw -->
  
  <defs>
    <style class="style-fonts">
      @font-face {
        font-family: "Virgil";
        src: url("https://excalidraw.com/Virgil.woff2");
      }
      @font-face {
        font-family: "Cascadia";
        src: url("https://excalidraw.com/Cascadia.woff2");
      }
    </style>
    
  </defs>
  <g transform="translate(140.51974487304744 10) rotate(0 118.47604370117188 22.5)"><text x="0" y="0" font-family="Virgil, Segoe UI Emoji" font-size="36px" fill="#1e1e1e" text-anchor="start" style="white-space: pre;" direction="ltr" dominant-baseline="text-before-edge">Search based</text></g><g transform="translate(73.09117344447588 339.7142857142856) rotate(0 151.6852569580078 23.928571428571445)"><text x="0" y="0" font-family="Virgil, Segoe UI Emoji" font-size="38.28571428571432px" fill="#f08c00" text-anchor="start" style="white-space: pre;" direction="ltr" dominant-baseline="text-before-edge">O que é React?</text></g><g transform="translate(113.3530782063807 541.6428571428569) rotate(0 295.84967041015625 12.5)"><text x="0" y="0" font-family="Virgil, Segoe UI Emoji" font-size="20px" fill="#1e1e1e" text-anchor="start" style="white-space: pre;" direction="ltr" dominant-baseline="text-before-edge">Com base no texto abaixo, responda a pergunta do usuário</text></g><g transform="translate(117.6030782063807 596.6428571428569) rotate(0 103.1098861694336 12.5)"><text x="0" y="0" font-family="Virgil, Segoe UI Emoji" font-size="20px" fill="#868e96" text-anchor="start" style="white-space: pre;" direction="ltr" dominant-baseline="text-before-edge">Texto: [transcrição]</text></g><g transform="translate(121.3530782063807 633.8928571428569) rotate(0 130.75985717773438 12.5)"><text x="0" y="0" font-family="Virgil, Segoe UI Emoji" font-size="20px" fill="#868e96" text-anchor="start" style="white-space: pre;" direction="ltr" dominant-baseline="text-before-edge">Pergunta: O que é React?</text></g><g transform="translate(1198.4721258254285 113.8571428571426) rotate(0 156.12982177734375 12.5)"><text x="0" y="0" font-family="Virgil, Segoe UI Emoji" font-size="20px" fill="#868e96" text-anchor="start" style="white-space: pre;" direction="ltr" dominant-baseline="text-before-edge">React é uma biblioteca xxxx.....</text></g><g transform="translate(1190.2843221956036 268.0070498180989) rotate(0 228.51974487304688 12.5)"><text x="0" y="0" font-family="Virgil, Segoe UI Emoji" font-size="20px" fill="#1e1e1e" text-anchor="start" style="white-space: pre;" direction="ltr" dominant-baseline="text-before-edge">[123456,12345555,454131351,1151651,6,51616515]</text></g><g transform="translate(1225.2816496349528 183.4047619047622) rotate(0 122.68985748291016 12.5)"><text x="0" y="0" font-family="Virgil, Segoe UI Emoji" font-size="20px" fill="#f08c00" text-anchor="start" style="white-space: pre;" direction="ltr" dominant-baseline="text-before-edge">representação semântica</text></g><g transform="translate(1187.7702597902658 312.2702028474354) rotate(0 41.189964294433594 12.5)"><text x="0" y="0" font-family="Virgil, Segoe UI Emoji" font-size="20px" fill="#868e96" text-anchor="start" style="white-space: pre;" direction="ltr" dominant-baseline="text-before-edge">Chunk 01</text></g><g transform="translate(1291.382945428872 310.5383435591695) rotate(0 45.59996032714844 12.5)"><text x="0" y="0" font-family="Virgil, Segoe UI Emoji" font-size="20px" fill="#868e96" text-anchor="start" style="white-space: pre;" direction="ltr" dominant-baseline="text-before-edge">Chunk 02</text></g><g transform="translate(1395.1025595269512 310.1551053753415) rotate(0 45.289955139160156 12.5)"><text x="0" y="0" font-family="Virgil, Segoe UI Emoji" font-size="20px" fill="#868e96" text-anchor="start" style="white-space: pre;" direction="ltr" dominant-baseline="text-before-edge">Chunk 03</text></g><g transform="translate(1503.1489692488858 312.01772987502255) rotate(0 44.87995910644531 12.5)"><text x="0" y="0" font-family="Virgil, Segoe UI Emoji" font-size="20px" fill="#868e96" text-anchor="start" style="white-space: pre;" direction="ltr" dominant-baseline="text-before-edge">Chunk 04</text></g><g transform="translate(1609.2485968136684 311.93357221755224) rotate(0 44.659957885742074 12.5)"><text x="0" y="0" font-family="Virgil, Segoe UI Emoji" font-size="20px" fill="#868e96" text-anchor="start" style="white-space: pre;" direction="ltr" dominant-baseline="text-before-edge">Chunk 05</text></g><g stroke-linecap="round" transform="translate(75.94831630161838 92.61904761904754) rotate(0 192.14285714285714 83.57142857142861)"><path d="M7.86 8.16 C7.86 8.16, 7.86 8.16, 7.86 8.16 M7.86 8.16 C7.86 8.16, 7.86 8.16, 7.86 8.16 M2.35 20.59 C5.04 20.2, 13.22 13.11, 18.1 2.48 M2.35 20.59 C6.77 12.34, 13.73 8.11, 18.1 2.48 M2.75 26.24 C10.08 20.77, 20.44 8.33, 24.4 1.33 M2.75 26.24 C8.17 17.78, 16.23 9.66, 24.4 1.33 M2.48 32.64 C8.28 23.78, 16.66 22.2, 30.7 0.18 M2.48 32.64 C11.96 20.91, 18 14.33, 30.7 0.18 M2.88 38.28 C12.14 29.84, 20.19 22.25, 34.37 2.05 M2.88 38.28 C13.07 27.16, 22.83 14, 34.37 2.05 M2.62 44.68 C10.17 34.49, 14.5 29.83, 39.36 2.41 M2.62 44.68 C13.72 36.93, 20.27 26.78, 39.36 2.41 M2.36 51.07 C6.81 36.98, 18.57 31.59, 45 2.02 M2.36 51.07 C13.75 35.04, 24.79 22.95, 45 2.02 M2.75 56.72 C23.49 38.86, 36.11 13.99, 49.99 2.38 M2.75 56.72 C11.65 44.54, 22.25 30.07, 49.99 2.38 M2.49 63.11 C14.84 44.35, 32.29 27.75, 55.63 1.98 M2.49 63.11 C13.07 51.65, 24.28 38.82, 55.63 1.98 M2.88 68.76 C28.11 47.1, 42.71 23.36, 60.62 2.34 M2.88 68.76 C24.78 42.5, 49.79 18.21, 60.62 2.34 M2.62 75.16 C19.34 55.61, 33.79 44.14, 66.26 1.95 M2.62 75.16 C21.27 55.72, 37.27 40.63, 66.26 1.95 M2.36 81.55 C22.69 56.8, 52.03 28.73, 71.25 2.31 M2.36 81.55 C15.16 62.32, 31.48 47.82, 71.25 2.31 M2.76 87.2 C31.33 56.55, 57.73 25.72, 76.89 1.91 M2.76 87.2 C30.02 57.99, 58.5 23.16, 76.89 1.91 M2.49 93.59 C17.34 72.65, 39.7 56.47, 81.88 2.27 M2.49 93.59 C24.8 69.75, 43.25 44.98, 81.88 2.27 M2.89 99.24 C31.66 65.05, 60.4 35.49, 87.52 1.88 M2.89 99.24 C23.52 75.62, 42.96 51.73, 87.52 1.88 M2.63 105.64 C35.71 71.08, 69.39 23.51, 92.51 2.24 M2.63 105.64 C25.99 78.19, 50.11 52.23, 92.51 2.24 M2.37 112.03 C39.07 73.2, 77.52 31.81, 98.15 1.85 M2.37 112.03 C40.26 70.2, 77.83 28.43, 98.15 1.85 M2.76 117.68 C37.73 86.05, 61.13 51.92, 103.14 2.21 M2.76 117.68 C26.08 94.53, 48.58 66.76, 103.14 2.21 M2.5 124.07 C39.62 86.22, 67.91 51.49, 108.78 1.81 M2.5 124.07 C23.88 102.39, 46.57 77.38, 108.78 1.81 M2.89 129.72 C41.81 85.06, 82.86 31.36, 113.77 2.17 M2.89 129.72 C36.73 95.84, 67.37 61.26, 113.77 2.17 M2.63 136.11 C29.3 103.78, 50.39 79.54, 119.41 1.78 M2.63 136.11 C43.54 91.75, 81.83 44.12, 119.41 1.78 M1.72 143.27 C33.74 101.43, 71.42 58.69, 124.4 2.14 M1.72 143.27 C39.36 101.02, 77.46 58.62, 124.4 2.14 M2.77 148.16 C32.11 110.54, 58.78 82.17, 130.04 1.74 M2.77 148.16 C48.16 92.34, 98.38 38.92, 130.04 1.74 M4.47 152.29 C38.63 111.58, 82.56 61.6, 135.03 2.1 M4.47 152.29 C43.56 109, 80.74 64.95, 135.03 2.1 M6.18 156.42 C53.83 100.86, 97.44 48.26, 140.67 1.71 M6.18 156.42 C41.22 116.2, 77.31 72.74, 140.67 1.71 M9.2 159.05 C42.21 117, 77.19 84.92, 145.66 2.07 M9.2 159.05 C56.14 107.1, 101.89 51.66, 145.66 2.07 M12.87 160.92 C62.23 100.7, 117.81 39.94, 150.65 2.43 M12.87 160.92 C61.34 105.93, 106.55 51.66, 150.65 2.43 M15.89 163.54 C67.9 98.74, 123.35 39.93, 156.29 2.03 M15.89 163.54 C57.39 115.22, 96.44 68.85, 156.29 2.03 M18.91 166.17 C68.92 120.1, 113.22 66.73, 161.28 2.39 M18.91 166.17 C63.59 115.37, 107.52 63.82, 161.28 2.39 M23.9 166.53 C54.25 128.79, 89.02 88.44, 166.92 2 M23.9 166.53 C58.91 124.68, 96.97 80.25, 166.92 2 M28.23 167.64 C62.02 125.17, 98.72 87.71, 171.91 2.36 M28.23 167.64 C59.35 131.15, 91.39 94.79, 171.91 2.36 M33.22 168 C88.69 101.09, 145.37 35.11, 177.55 1.96 M33.22 168 C84.1 109.83, 131.57 52.89, 177.55 1.96 M38.2 168.36 C97.76 99.85, 153.72 38.69, 182.54 2.32 M38.2 168.36 C85.56 114.14, 130.91 59.64, 182.54 2.32 M43.85 167.97 C75.65 132.82, 107.96 95.32, 188.18 1.93 M43.85 167.97 C90.47 119.15, 132.89 68.07, 188.18 1.93 M48.83 168.33 C77.46 129.72, 112.96 92.15, 193.17 2.29 M48.83 168.33 C83.94 132.37, 119.57 89.92, 193.17 2.29 M54.48 167.93 C103.24 112.94, 148.65 61.28, 198.81 1.9 M54.48 167.93 C89.22 121.82, 127.92 79.05, 198.81 1.9 M59.46 168.29 C100.92 119, 146.57 71.41, 203.8 2.26 M59.46 168.29 C108.94 110.91, 155.1 57.97, 203.8 2.26 M65.11 167.9 C102.82 125.25, 136.02 91.44, 209.44 1.86 M65.11 167.9 C100.53 125.25, 137.93 88.02, 209.44 1.86 M70.09 168.26 C117.67 110.65, 171.59 51.66, 214.43 2.22 M70.09 168.26 C121.69 108.01, 168.74 50.31, 214.43 2.22 M75.74 167.86 C107.9 126.94, 141.07 87.15, 220.07 1.83 M75.74 167.86 C132.56 99.87, 190.67 34.47, 220.07 1.83 M80.72 168.22 C118.18 131.55, 145.52 90.22, 225.06 2.19 M80.72 168.22 C112.46 129.32, 146.66 91.09, 225.06 2.19 M86.37 167.83 C120.14 126.4, 151.39 87.77, 230.7 1.79 M86.37 167.83 C140.28 101.49, 192.04 37.32, 230.7 1.79 M91.35 168.19 C122.27 138.63, 153.46 102.11, 235.69 2.15 M91.35 168.19 C127.81 130.89, 161.05 90.45, 235.69 2.15 M97 167.79 C141.72 118.16, 182.6 74.03, 241.33 1.76 M97 167.79 C123.1 134.19, 153.63 97.92, 241.33 1.76 M101.98 168.15 C138.72 130.3, 176.61 87.63, 246.32 2.12 M101.98 168.15 C139.52 124.64, 179.66 80.01, 246.32 2.12 M107.63 167.76 C160.34 106.64, 213.12 48.56, 251.96 1.72 M107.63 167.76 C160.12 109.47, 211.21 49.54, 251.96 1.72 M112.61 168.12 C157.22 115.31, 203.74 58.38, 256.95 2.08 M112.61 168.12 C157.2 116.11, 198.58 64.2, 256.95 2.08 M117.6 168.48 C160.26 118.05, 209.87 65.57, 262.59 1.69 M117.6 168.48 C156.18 125.49, 196.06 78.56, 262.59 1.69 M123.24 168.08 C167.88 115.67, 208.57 70.65, 267.58 2.05 M123.24 168.08 C154.88 133.49, 184.44 99.06, 267.58 2.05 M128.23 168.44 C174.73 116.91, 216.07 64.16, 272.56 2.41 M128.23 168.44 C172.05 116.49, 214.2 66.36, 272.56 2.41 M133.87 168.05 C172.96 125.52, 218.62 79.01, 278.21 2.01 M133.87 168.05 C176.83 120.27, 218.87 68.63, 278.21 2.01 M138.86 168.41 C167.51 134.98, 197.22 98.6, 283.19 2.37 M138.86 168.41 C187.4 114.26, 233.95 61.09, 283.19 2.37 M144.5 168.02 C177.48 128.4, 207.09 93.52, 288.84 1.98 M144.5 168.02 C198.22 107.45, 248.94 46.85, 288.84 1.98 M149.49 168.38 C211.21 100.67, 263.03 33.14, 293.82 2.34 M149.49 168.38 C189.89 119.48, 234.99 68.08, 293.82 2.34 M155.13 167.98 C207.77 113.87, 251.77 56.4, 299.47 1.94 M155.13 167.98 C195.14 124.66, 230.48 81.92, 299.47 1.94 M160.12 168.34 C210.62 108.13, 259.59 53.49, 304.45 2.3 M160.12 168.34 C216.39 105.61, 271.82 43.04, 304.45 2.3 M165.76 167.95 C204.06 122.26, 250.33 72.36, 310.1 1.91 M165.76 167.95 C215.52 112.66, 263.07 59.07, 310.1 1.91 M170.75 168.31 C207.22 121.69, 241.65 80.86, 315.08 2.27 M170.75 168.31 C224.14 110.24, 276.09 49.28, 315.08 2.27 M176.39 167.91 C201.74 130.94, 231.46 96.86, 320.73 1.88 M176.39 167.91 C229.63 102.34, 286.43 39.39, 320.73 1.88 M181.38 168.27 C209.56 135, 236.62 102.72, 325.71 2.24 M181.38 168.27 C211.37 130.5, 242.39 94.34, 325.71 2.24 M187.02 167.88 C225.21 120.02, 267.85 72.52, 331.36 1.84 M187.02 167.88 C225.36 118.68, 265.11 73.78, 331.36 1.84 M192.01 168.24 C243.97 108.43, 302.76 45.16, 336.34 2.2 M192.01 168.24 C220.09 133.01, 248.99 99.14, 336.34 2.2 M197.65 167.84 C245.05 111.74, 291.86 58.3, 341.99 1.81 M197.65 167.84 C253.78 105.78, 306.34 45.04, 341.99 1.81 M202.64 168.2 C244.98 126.26, 283.95 73.97, 346.97 2.17 M202.64 168.2 C252.55 115.34, 298.65 59.73, 346.97 2.17 M208.28 167.81 C246.43 127.05, 284.74 82.25, 353.27 1.02 M208.28 167.81 C246.36 122.89, 286.2 79.5, 353.27 1.02 M213.27 168.17 C259.77 119.54, 300.13 68.24, 358.26 1.38 M213.27 168.17 C254.58 122.02, 294.62 76.27, 358.26 1.38 M218.91 167.77 C271.8 103.02, 326.98 44.87, 362.59 2.49 M218.91 167.77 C258.08 124.29, 294.41 82.49, 362.59 2.49 M223.9 168.13 C281.89 105.09, 336.7 41.96, 367.58 2.85 M223.9 168.13 C266.34 115.65, 309.81 62.08, 367.58 2.85 M229.54 167.74 C271.72 114.05, 320.08 65.19, 371.25 4.72 M229.54 167.74 C272.45 123.91, 310.1 76.61, 371.25 4.72 M234.53 168.1 C277.26 121.83, 322.67 69.98, 374.27 7.35 M234.53 168.1 C286.51 110.33, 336.14 52.9, 374.27 7.35 M239.52 168.46 C279.32 125.99, 319.07 76.48, 377.95 9.22 M239.52 168.46 C292.92 106.41, 349.63 42.48, 377.95 9.22 M245.16 168.07 C297.32 112, 349.99 47.91, 379.65 13.35 M245.16 168.07 C289.6 119.94, 332.55 69.15, 379.65 13.35 M250.15 168.43 C280.64 126.61, 315.45 92.75, 381.36 17.48 M250.15 168.43 C281.21 134.07, 314.99 94.24, 381.36 17.48 M255.79 168.03 C285.22 130.11, 325.97 90.67, 383.07 21.62 M255.79 168.03 C300.94 115.4, 346.27 62.73, 383.07 21.62 M260.78 168.39 C298.46 121.34, 343.67 76.76, 384.77 25.75 M260.78 168.39 C294.37 129.25, 330.07 93.52, 384.77 25.75 M266.42 168 C301.23 137.06, 329.52 96.18, 385.17 31.39 M266.42 168 C311.01 113.59, 358.41 60.96, 385.17 31.39 M271.41 168.36 C311.21 115.91, 349.54 71.25, 384.91 37.79 M271.41 168.36 C298.93 138.62, 322.13 109.5, 384.91 37.79 M277.05 167.96 C318.63 119.35, 363.87 70.49, 385.3 43.43 M277.05 167.96 C306.05 133.71, 334.48 102.11, 385.3 43.43 M282.04 168.32 C322.44 118.61, 363.46 74.12, 385.04 49.83 M282.04 168.32 C311.31 136.53, 338.7 106.33, 385.04 49.83 M287.68 167.93 C304.25 140.16, 331.93 117.25, 384.78 56.23 M287.68 167.93 C324.39 129.63, 357.66 87.97, 384.78 56.23 M292.67 168.29 C327.57 126.65, 362.06 87.53, 385.17 61.87 M292.67 168.29 C326.11 127.6, 359.49 91.86, 385.17 61.87 M298.31 167.89 C330.37 131.72, 358.32 100.26, 384.91 68.27 M298.31 167.89 C322.58 137.81, 350.82 109.43, 384.91 68.27 M303.3 168.25 C325.55 142.12, 342.03 117.69, 385.31 73.91 M303.3 168.25 C331.79 132.82, 362.58 98.46, 385.31 73.91 M308.94 167.86 C336.07 134.63, 366.28 107.92, 385.04 80.31 M308.94 167.86 C332.5 142.18, 354.82 113.51, 385.04 80.31 M313.93 168.22 C335.23 145.02, 357.59 115.46, 385.44 85.95 M313.93 168.22 C342.32 139.62, 365.68 107.66, 385.44 85.95 M319.57 167.82 C339.18 145.75, 355.92 123.47, 385.18 92.35 M319.57 167.82 C336.5 145.67, 351.32 128.51, 385.18 92.35 M324.56 168.18 C349.21 139.06, 375.73 113.69, 385.57 98 M324.56 168.18 C345.16 141.75, 372.24 112.35, 385.57 98 M330.2 167.79 C345.1 152.32, 360.4 129.95, 385.31 104.39 M330.2 167.79 C346.04 150.76, 358.08 133.18, 385.31 104.39 M335.19 168.15 C349.74 154.26, 359.76 140.77, 385.05 110.79 M335.19 168.15 C347.83 152.31, 361.02 139.01, 385.05 110.79 M340.83 167.75 C357.24 149.54, 378.93 128.44, 385.44 116.43 M340.83 167.75 C350.71 155.16, 359.7 146.05, 385.44 116.43 M345.82 168.11 C362.45 156.05, 372.79 138.88, 385.18 122.83 M345.82 168.11 C359.87 154.2, 370.09 138.41, 385.18 122.83 M350.81 168.47 C360.52 163.84, 365.7 148.2, 385.58 128.48 M350.81 168.47 C356.66 158.91, 363.18 152.79, 385.58 128.48 M355.14 169.59 C365.92 158.28, 368.45 150.58, 384.66 135.63 M355.14 169.59 C363.59 158.19, 375.17 145.07, 384.66 135.63 M361.44 168.44 C372.66 158.21, 378.91 149.73, 383.74 142.78 M361.44 168.44 C364.96 161.61, 371.31 155.03, 383.74 142.78 M368.39 166.54 C374.83 158.35, 373.65 161.23, 382.82 149.93 M368.39 166.54 C374.59 160.81, 376.2 158.89, 382.82 149.93" stroke="#e9ecef" stroke-width="0.5" fill="none"></path><path d="M32 0 M32 0 C123.08 0.04, 208.92 -3.61, 352.29 0 M32 0 C106.09 0.59, 179.13 -0.33, 352.29 0 M352.29 0 C370.46 -2.93, 382.55 13.78, 384.29 32 M352.29 0 C373.6 0.19, 387.57 14.25, 384.29 32 M384.29 32 C389.29 71.49, 389.14 116.12, 384.29 135.14 M384.29 32 C382.07 57.49, 383.36 84.52, 384.29 135.14 M384.29 135.14 C385.59 157.63, 376.94 165.2, 352.29 167.14 M384.29 135.14 C387.85 154.94, 373.19 169.78, 352.29 167.14 M352.29 167.14 C261.48 167.28, 164.98 169.5, 32 167.14 M352.29 167.14 C234.15 164.71, 114.99 165.72, 32 167.14 M32 167.14 C13.92 166.93, 2.53 154.17, 0 135.14 M32 167.14 C12.47 169.02, -4.44 155.05, 0 135.14 M0 135.14 C-0.44 113.17, -0.61 85.66, 0 32 M0 135.14 C-0.06 100.46, -0.77 68.45, 0 32 M0 32 C-3.02 14.55, 11.18 0.64, 32 0 M0 32 C-0.86 6.7, 6.45 -2.37, 32 0" stroke="#1e1e1e" stroke-width="1" fill="none"></path></g><g transform="translate(223.73897770472945 158.6904761904761) rotate(0 44.352195739746094 17.5)"><text x="44.352195739746094" y="0" font-family="Virgil, Segoe UI Emoji" font-size="28px" fill="#343a40" text-anchor="middle" style="white-space: pre;" direction="ltr" dominant-baseline="text-before-edge">prompt</text></g><g transform="translate(10 420.6904761904762) rotate(0 228.51974487304688 12.5)"><text x="0" y="0" font-family="Virgil, Segoe UI Emoji" font-size="20px" fill="#1e1e1e" text-anchor="start" style="white-space: pre;" direction="ltr" dominant-baseline="text-before-edge">[123456,12345555,454131351,1151651,6,51616515]</text></g><g stroke-linecap="round" transform="translate(890.6626020159041 94.1904761904762) rotate(0 137 32.5)"><path d="M4.33 3.76 C4.33 3.76, 4.33 3.76, 4.33 3.76 M4.33 3.76 C4.33 3.76, 4.33 3.76, 4.33 3.76 M0.78 13.93 C5.43 9.41, 8.62 7.5, 11.28 1.86 M0.78 13.93 C2.78 11.6, 5.51 7.51, 11.28 1.86 M2.49 18.07 C6.4 9.39, 16.68 3.32, 17.58 0.71 M2.49 18.07 C6.26 14.44, 7.15 10.83, 17.58 0.71 M2.23 24.46 C13.22 20.6, 14.21 6.4, 22.57 1.07 M2.23 24.46 C9.77 16.93, 14.71 10.7, 22.57 1.07 M2.62 30.11 C12.13 23.97, 17.73 14.71, 28.21 0.67 M2.62 30.11 C10.01 21.1, 19.44 13.3, 28.21 0.67 M3.02 35.75 C14.82 19.32, 21.07 13.53, 33.2 1.03 M3.02 35.75 C14.64 21.45, 26.51 7.79, 33.2 1.03 M2.76 42.15 C12.75 27.21, 32.28 11.02, 38.84 0.64 M2.76 42.15 C14.04 29.73, 27.41 14, 38.84 0.64 M3.15 47.79 C15.02 30.35, 33.45 13.17, 43.83 1 M3.15 47.79 C10.16 38.47, 19.77 27.86, 43.83 1 M1.58 55.7 C15.49 47.9, 24.56 32.89, 48.81 1.36 M1.58 55.7 C17.13 37.84, 31.26 22.2, 48.81 1.36 M3.94 59.08 C19.88 48.46, 27.23 37.96, 54.46 0.96 M3.94 59.08 C14.97 47.48, 23.55 34.85, 54.46 0.96 M6.3 62.45 C16.44 44.41, 34.01 31.9, 59.44 1.32 M6.3 62.45 C22.72 42.06, 39.75 25.68, 59.44 1.32 M9.32 65.08 C26.75 44.84, 47.47 14.86, 65.09 0.93 M9.32 65.08 C24.18 45.98, 39.64 28.68, 65.09 0.93 M13.65 66.19 C36.06 40.4, 61.09 17.75, 70.07 1.29 M13.65 66.19 C30.28 46.96, 50.24 23.96, 70.07 1.29 M19.3 65.8 C35.45 49.05, 49.88 27.91, 75.72 0.89 M19.3 65.8 C36.48 45.24, 53.45 27.39, 75.72 0.89 M24.28 66.16 C34.15 52, 48.98 41.78, 80.7 1.25 M24.28 66.16 C35.08 48.65, 50.68 33.93, 80.7 1.25 M29.93 65.76 C44.97 49.08, 56.94 29.74, 86.35 0.86 M29.93 65.76 C47.43 46.38, 64.79 28.46, 86.35 0.86 M34.91 66.12 C46.62 54.47, 61.62 37, 91.33 1.22 M34.91 66.12 C49.78 51.86, 60.99 36.15, 91.33 1.22 M40.56 65.73 C49.8 51.74, 61.63 43.64, 96.98 0.83 M40.56 65.73 C56.64 48.16, 76.16 28.31, 96.98 0.83 M45.54 66.09 C59.58 47.32, 84.03 27.64, 101.96 1.19 M45.54 66.09 C60.66 52.89, 74.91 36.85, 101.96 1.19 M51.19 65.7 C63.42 49.23, 79.33 33.48, 107.61 0.79 M51.19 65.7 C71.66 38.56, 94.74 15.06, 107.61 0.79 M56.17 66.06 C75.51 40.63, 96.76 21.27, 112.59 1.15 M56.17 66.06 C69.46 49.19, 87.69 28.84, 112.59 1.15 M61.82 65.66 C82.09 37.27, 102.83 13.09, 118.24 0.76 M61.82 65.66 C79.62 43.5, 100.01 21.36, 118.24 0.76 M66.8 66.02 C87.43 42.46, 103.64 21.55, 123.22 1.12 M66.8 66.02 C80.61 50.7, 93.69 37.39, 123.22 1.12 M71.79 66.38 C92.03 46.67, 112.22 20.03, 128.87 0.72 M71.79 66.38 C90.68 46.48, 110.15 25.47, 128.87 0.72 M77.43 65.99 C96.69 48.69, 112.03 24.69, 133.85 1.08 M77.43 65.99 C94.62 43.71, 112.78 20.56, 133.85 1.08 M82.42 66.35 C105.17 40.87, 124.83 17.02, 138.84 1.44 M82.42 66.35 C94.51 48.82, 110.68 35.14, 138.84 1.44 M88.06 65.95 C111.2 39.4, 136.6 17.27, 144.48 1.05 M88.06 65.95 C105.35 45.49, 124 25.32, 144.48 1.05 M93.05 66.31 C106.92 49.82, 118.7 33.59, 149.47 1.41 M93.05 66.31 C111.56 43.29, 130.68 20.29, 149.47 1.41 M98.69 65.92 C116.64 44.98, 142.39 18.84, 155.11 1.01 M98.69 65.92 C120.84 38.92, 141.24 15.72, 155.11 1.01 M103.68 66.28 C112.29 51.31, 129.01 39.64, 160.1 1.37 M103.68 66.28 C120.27 49.21, 134.5 34.99, 160.1 1.37 M109.32 65.88 C129.71 44.31, 145.52 30.61, 165.74 0.98 M109.32 65.88 C126.46 49.87, 141.6 28.73, 165.74 0.98 M114.31 66.24 C132.32 43.77, 152.28 30.35, 170.73 1.34 M114.31 66.24 C135 41.77, 156.61 19.27, 170.73 1.34 M119.95 65.85 C140.86 46.3, 155.01 24.56, 176.38 0.94 M119.95 65.85 C136.35 47.59, 147.61 32.14, 176.38 0.94 M124.94 66.21 C138.91 53.59, 153.29 32.28, 181.36 1.3 M124.94 66.21 C145.65 41.28, 165.22 18.84, 181.36 1.3 M130.58 65.81 C140.53 52.84, 158.08 37.78, 187.01 0.91 M130.58 65.81 C145.28 49.55, 155.58 34.93, 187.01 0.91 M135.57 66.17 C150.35 49.86, 169.36 23.65, 191.99 1.27 M135.57 66.17 C150.15 55.13, 160.72 39.76, 191.99 1.27 M141.21 65.78 C152.64 50.65, 169.16 30.88, 197.64 0.88 M141.21 65.78 C154.23 50.57, 170.12 32.87, 197.64 0.88 M146.2 66.14 C158.48 56.37, 167.5 37.78, 202.62 1.24 M146.2 66.14 C158.35 53.4, 173.26 37.48, 202.62 1.24 M151.84 65.75 C168.41 48.38, 176.93 31.57, 208.27 0.84 M151.84 65.75 C165.48 48.24, 185.56 28.41, 208.27 0.84 M156.83 66.11 C174.72 47.63, 192.47 27.67, 213.25 1.2 M156.83 66.11 C175.93 45.19, 191.87 27.64, 213.25 1.2 M161.82 66.47 C177.75 44.55, 194.62 27.9, 218.9 0.81 M161.82 66.47 C184.31 40.71, 205.62 17.75, 218.9 0.81 M167.46 66.07 C184.09 41.35, 202.73 21.9, 223.88 1.17 M167.46 66.07 C184.54 45.28, 204.84 24.25, 223.88 1.17 M172.45 66.43 C192.68 43.03, 211.04 22.36, 228.87 1.53 M172.45 66.43 C189.79 45.94, 207.9 26.99, 228.87 1.53 M178.09 66.04 C195.36 51.37, 208.12 32.17, 234.51 1.13 M178.09 66.04 C189.13 49.24, 204.62 36.3, 234.51 1.13 M183.08 66.4 C206.4 42.13, 224.52 23.17, 239.5 1.49 M183.08 66.4 C199.92 47.42, 219.13 25.48, 239.5 1.49 M188.72 66 C209.25 45.11, 227.69 20.16, 245.14 1.1 M188.72 66 C200.27 49.85, 211.88 37.73, 245.14 1.1 M193.71 66.36 C212.91 42.82, 234.14 24.31, 250.13 1.46 M193.71 66.36 C215.53 39.68, 237.04 15.7, 250.13 1.46 M199.35 65.97 C219.23 46.81, 234.96 22.29, 255.77 1.06 M199.35 65.97 C223.39 39.92, 243.72 13.68, 255.77 1.06 M204.34 66.33 C225.97 44.88, 238.36 22.8, 261.42 0.67 M204.34 66.33 C226.31 40.05, 247.48 16.81, 261.42 0.67 M209.98 65.93 C226.45 47, 244.2 21.96, 265.75 1.78 M209.98 65.93 C221.62 53.04, 232.26 37.87, 265.75 1.78 M214.97 66.29 C233.82 43.62, 253.97 16.19, 269.42 3.65 M214.97 66.29 C230.42 48.88, 246.96 31.7, 269.42 3.65 M220.61 65.9 C238.38 47.67, 251.36 23.02, 271.78 7.03 M220.61 65.9 C234.35 46.59, 250.26 30.2, 271.78 7.03 M225.6 66.26 C235.33 48.69, 246.56 39.44, 274.15 10.41 M225.6 66.26 C246.43 47.04, 262.52 23.43, 274.15 10.41 M231.24 65.86 C246.73 54.42, 257.49 36.95, 274.54 16.05 M231.24 65.86 C239.58 55.24, 250.3 46.68, 274.54 16.05 M236.23 66.22 C251.69 55.01, 256.5 40.25, 274.28 22.45 M236.23 66.22 C245.4 55.36, 254.92 42.84, 274.28 22.45 M241.87 65.83 C254.17 57.39, 261.62 47.25, 274.67 28.09 M241.87 65.83 C250.85 53.64, 259.06 43.46, 274.67 28.09 M246.86 66.19 C251.22 60.15, 262.32 46.08, 274.41 34.49 M246.86 66.19 C253.6 58.54, 258.01 53.5, 274.41 34.49 M251.85 66.55 C262.99 60.21, 263.88 49.63, 274.81 40.14 M251.85 66.55 C258.33 60.1, 262.18 53.69, 274.81 40.14 M258.15 65.4 C264.04 63.57, 264.63 59.85, 275.2 45.78 M258.15 65.4 C262.39 59.59, 268.97 53.62, 275.2 45.78 M265.76 62.74 C267.45 61.67, 268.92 57.62, 274.29 52.93 M265.76 62.74 C268.85 60.58, 269.68 57.23, 274.29 52.93" stroke="#e9ecef" stroke-width="0.5" fill="none"></path><path d="M16.25 0 M16.25 0 C73.41 3.9, 126.37 2.74, 257.75 0 M16.25 0 C80.4 -4.25, 145.59 -3.35, 257.75 0 M257.75 0 C270.79 0.57, 270.74 6.15, 274 16.25 M257.75 0 C265.78 -3.16, 271.18 7.72, 274 16.25 M274 16.25 C271.9 20.67, 276.33 32.37, 274 48.75 M274 16.25 C274.1 22.74, 274.5 29.51, 274 48.75 M274 48.75 C274.14 56.95, 267.22 68.48, 257.75 65 M274 48.75 C274.51 61.42, 264.13 60.78, 257.75 65 M257.75 65 C173.48 62.98, 88.28 64.79, 16.25 65 M257.75 65 C176.54 66.32, 95.5 69.2, 16.25 65 M16.25 65 C2.86 64, -1.52 59.54, 0 48.75 M16.25 65 C4.56 67.26, -0.69 56.17, 0 48.75 M0 48.75 C3.46 40.06, -1 29.31, 0 16.25 M0 48.75 C0.33 40.42, -1.59 32.61, 0 16.25 M0 16.25 C-1.84 3.75, 4.72 -1.02, 16.25 0 M0 16.25 C-3.32 5.45, 5.05 4.03, 16.25 0" stroke="#1e1e1e" stroke-width="1" fill="none"></path></g><g transform="translate(925.2661710466658 109.1904761904762) rotate(0 102.39643096923828 17.5)"><text x="102.39643096923828" y="0" font-family="Virgil, Segoe UI Emoji" font-size="28px" fill="#343a40" text-anchor="middle" style="white-space: pre;" direction="ltr" dominant-baseline="text-before-edge">Aula: React 01</text></g><g stroke-linecap="round" transform="translate(893.805459158761 173.8333333333332) rotate(0 137 32.5)"><path d="M4.33 3.76 C4.33 3.76, 4.33 3.76, 4.33 3.76 M4.33 3.76 C4.33 3.76, 4.33 3.76, 4.33 3.76 M0.78 13.93 C1.44 8.62, 10.56 5.06, 11.28 1.86 M0.78 13.93 C3.37 8.88, 6.94 8.21, 11.28 1.86 M2.49 18.07 C9.99 15.56, 11.85 12.87, 17.58 0.71 M2.49 18.07 C4.83 11.83, 9.88 8.97, 17.58 0.71 M2.23 24.46 C11.28 13, 15.69 10.63, 22.57 1.07 M2.23 24.46 C7.94 17.77, 17.62 8.59, 22.57 1.07 M2.62 30.11 C7.62 20.89, 14.34 13.29, 28.21 0.67 M2.62 30.11 C12.65 18.44, 20.1 5.35, 28.21 0.67 M3.02 35.75 C12.86 28.65, 21.27 13.58, 33.2 1.03 M3.02 35.75 C10.49 24.63, 20.82 15.02, 33.2 1.03 M2.76 42.15 C10.29 30.72, 20.17 16.51, 38.84 0.64 M2.76 42.15 C17.32 26.28, 28.83 10.6, 38.84 0.64 M3.15 47.79 C14.57 30.75, 30.89 11.9, 43.83 1 M3.15 47.79 C20.01 27.56, 33.9 12.67, 43.83 1 M1.58 55.7 C12.01 44.44, 27.29 27.71, 48.81 1.36 M1.58 55.7 C10.63 42.02, 22.91 28.06, 48.81 1.36 M3.94 59.08 C16.27 42.13, 25.91 26.07, 54.46 0.96 M3.94 59.08 C21.34 38.64, 39.48 16.16, 54.46 0.96 M6.3 62.45 C28.95 38.58, 44.71 23.37, 59.44 1.32 M6.3 62.45 C23.41 41.44, 42.25 17.63, 59.44 1.32 M9.32 65.08 C21.86 45.66, 34.74 30.55, 65.09 0.93 M9.32 65.08 C21.56 49.72, 33.88 36, 65.09 0.93 M13.65 66.19 C38.15 41.96, 60.37 15.92, 70.07 1.29 M13.65 66.19 C24.38 51.46, 39.09 37.08, 70.07 1.29 M19.3 65.8 C30.38 51.66, 49.62 28.46, 75.72 0.89 M19.3 65.8 C33.13 50.25, 46.96 33.34, 75.72 0.89 M24.28 66.16 C38.38 51.57, 47.27 31.11, 80.7 1.25 M24.28 66.16 C42.69 43.86, 61.81 22.3, 80.7 1.25 M29.93 65.76 C48.61 39.06, 68.82 24.1, 86.35 0.86 M29.93 65.76 C43.55 50.49, 57.87 35.24, 86.35 0.86 M34.91 66.12 C49.93 54.85, 60.65 35.73, 91.33 1.22 M34.91 66.12 C47.14 51.09, 62.38 33.94, 91.33 1.22 M40.56 65.73 C62.8 39.48, 82.96 14.82, 96.98 0.83 M40.56 65.73 C57.3 46.18, 73.53 29.42, 96.98 0.83 M45.54 66.09 C67.41 45.45, 80.57 23.84, 101.96 1.19 M45.54 66.09 C61.81 49.34, 79.84 28.91, 101.96 1.19 M51.19 65.7 C69.15 47.98, 87.93 22.63, 107.61 0.79 M51.19 65.7 C68.28 47.9, 86.14 28.55, 107.61 0.79 M56.17 66.06 C71.35 50.66, 78.41 36.25, 112.59 1.15 M56.17 66.06 C78.21 44.39, 96.95 18.35, 112.59 1.15 M61.82 65.66 C76.59 46.9, 88.7 34.22, 118.24 0.76 M61.82 65.66 C82.06 43.89, 99.8 20.43, 118.24 0.76 M66.8 66.02 C82.21 42.12, 100.81 23.93, 123.22 1.12 M66.8 66.02 C80.58 53.58, 89.7 37.13, 123.22 1.12 M71.79 66.38 C95.63 45.39, 114.81 14.78, 128.87 0.72 M71.79 66.38 C95.11 41.82, 117.83 13.85, 128.87 0.72 M77.43 65.99 C91.1 51.52, 104.62 34, 133.85 1.08 M77.43 65.99 C89.68 54.47, 102.62 39.09, 133.85 1.08 M82.42 66.35 C105.01 39.82, 126.95 16.28, 138.84 1.44 M82.42 66.35 C101.19 42.86, 124.79 14.77, 138.84 1.44 M88.06 65.95 C110.45 45.9, 127.35 22.67, 144.48 1.05 M88.06 65.95 C103.06 49.11, 118.96 32.67, 144.48 1.05 M93.05 66.31 C110 46.82, 119.17 35.16, 149.47 1.41 M93.05 66.31 C111.06 46.66, 127.07 26.76, 149.47 1.41 M98.69 65.92 C116.06 42.62, 136.68 19.66, 155.11 1.01 M98.69 65.92 C114.34 47.74, 132.16 28.22, 155.11 1.01 M103.68 66.28 C128.6 38.82, 149.61 18.32, 160.1 1.37 M103.68 66.28 C119.92 45.71, 138.77 24.88, 160.1 1.37 M109.32 65.88 C122.24 45.58, 143.64 32.91, 165.74 0.98 M109.32 65.88 C128.96 45.65, 147.29 24.27, 165.74 0.98 M114.31 66.24 C129.84 49.5, 137.98 38.48, 170.73 1.34 M114.31 66.24 C126.28 51.11, 142.28 33.37, 170.73 1.34 M119.95 65.85 C138.62 43.37, 158.47 18.29, 176.38 0.94 M119.95 65.85 C135.94 49.02, 147.88 32.98, 176.38 0.94 M124.94 66.21 C137.51 54.04, 144.99 40.41, 181.36 1.3 M124.94 66.21 C143.16 41.88, 166.05 20.9, 181.36 1.3 M130.58 65.81 C143.76 56.51, 148.73 36.23, 187.01 0.91 M130.58 65.81 C140.84 52.61, 153.03 37.24, 187.01 0.91 M135.57 66.17 C160 37.72, 176.11 12.86, 191.99 1.27 M135.57 66.17 C150.15 48.95, 162.55 31.88, 191.99 1.27 M141.21 65.78 C153.61 45.27, 168.48 30.16, 197.64 0.88 M141.21 65.78 C156.57 47.86, 172.09 35.29, 197.64 0.88 M146.2 66.14 C163.1 44.45, 185.43 24.62, 202.62 1.24 M146.2 66.14 C160.62 50.19, 176.88 33.19, 202.62 1.24 M151.84 65.75 C171.4 43.34, 188.13 22.59, 208.27 0.84 M151.84 65.75 C168.83 50.96, 179.66 34.32, 208.27 0.84 M156.83 66.11 C180.01 39.3, 203.05 18.66, 213.25 1.2 M156.83 66.11 C168.6 50.4, 183.56 37.5, 213.25 1.2 M161.82 66.47 C182.06 52.15, 191.17 33.78, 218.9 0.81 M161.82 66.47 C184.84 40.78, 205.6 16.59, 218.9 0.81 M167.46 66.07 C182.73 41.48, 205.07 21.49, 223.88 1.17 M167.46 66.07 C185.75 44.51, 202.94 25.07, 223.88 1.17 M172.45 66.43 C188.07 54.45, 200.2 35.83, 228.87 1.53 M172.45 66.43 C188.15 44.05, 204.97 27.54, 228.87 1.53 M178.09 66.04 C193.51 48.08, 203.88 40.48, 234.51 1.13 M178.09 66.04 C189.76 51.9, 202.21 39.53, 234.51 1.13 M183.08 66.4 C202.04 51.91, 212.91 29.7, 239.5 1.49 M183.08 66.4 C199.8 48.82, 215.87 26.88, 239.5 1.49 M188.72 66 C204.43 40.62, 230.78 17.86, 245.14 1.1 M188.72 66 C206.72 44.85, 223.76 24.87, 245.14 1.1 M193.71 66.36 C214.7 45.29, 231.43 22.98, 250.13 1.46 M193.71 66.36 C211.32 40.74, 231.1 18.27, 250.13 1.46 M199.35 65.97 C220.9 45.22, 239.27 19.37, 255.77 1.06 M199.35 65.97 C218.69 41.6, 239.44 18.92, 255.77 1.06 M204.34 66.33 C216.99 48.82, 234.99 36.52, 261.42 0.67 M204.34 66.33 C219.28 46.16, 235.79 28.22, 261.42 0.67 M209.98 65.93 C226.45 49.4, 245.14 25.88, 265.75 1.78 M209.98 65.93 C227.93 41.78, 249.28 18.61, 265.75 1.78 M214.97 66.29 C226.9 54.09, 241.66 37.47, 269.42 3.65 M214.97 66.29 C231.42 46.73, 247.95 30.28, 269.42 3.65 M220.61 65.9 C237.42 48.64, 254.85 27.15, 271.78 7.03 M220.61 65.9 C237.66 46.1, 256.79 27.85, 271.78 7.03 M225.6 66.26 C235.76 55.13, 249.19 39.47, 274.15 10.41 M225.6 66.26 C239 48.07, 253.22 35.27, 274.15 10.41 M231.24 65.86 C245.28 46.21, 264.1 23.79, 274.54 16.05 M231.24 65.86 C245.8 46.71, 258.4 30.99, 274.54 16.05 M236.23 66.22 C253.58 49.76, 264.38 36.32, 274.28 22.45 M236.23 66.22 C248.83 51.57, 262.59 35.21, 274.28 22.45 M241.87 65.83 C248.75 52.42, 264.59 44.14, 274.67 28.09 M241.87 65.83 C254.31 50.9, 268.62 37.91, 274.67 28.09 M246.86 66.19 C251.93 56.24, 266.99 41.62, 274.41 34.49 M246.86 66.19 C251.1 57.88, 259.04 50.64, 274.41 34.49 M251.85 66.55 C254.2 57.36, 258.78 57.98, 274.81 40.14 M251.85 66.55 C256 60.17, 261.7 57.03, 274.81 40.14 M258.15 65.4 C264.7 58.66, 265.25 49.06, 275.2 45.78 M258.15 65.4 C263.69 60.71, 269.57 51.33, 275.2 45.78 M265.76 62.74 C268.39 59.82, 274.11 53.26, 274.29 52.93 M265.76 62.74 C266.84 60.98, 270.56 58.49, 274.29 52.93" stroke="#e9ecef" stroke-width="0.5" fill="none"></path><path d="M16.25 0 M16.25 0 C103.63 -0.85, 186.51 -2.26, 257.75 0 M16.25 0 C83.69 -4.31, 153.46 -3.59, 257.75 0 M257.75 0 C269.32 -2.83, 276.72 6.02, 274 16.25 M257.75 0 C271.8 1.93, 274.64 4.09, 274 16.25 M274 16.25 C270.21 27.68, 276.6 37.57, 274 48.75 M274 16.25 C273.64 25.73, 274.34 37.71, 274 48.75 M274 48.75 C271.78 62.81, 269.19 64.16, 257.75 65 M274 48.75 C276 62.02, 267.47 61.4, 257.75 65 M257.75 65 C167.76 64.81, 85.38 59.57, 16.25 65 M257.75 65 C164.55 64.81, 72.3 66.67, 16.25 65 M16.25 65 C4.14 62.3, 0.14 62.19, 0 48.75 M16.25 65 C7.71 63.38, 3.48 63.86, 0 48.75 M0 48.75 C1.63 35.93, 1.55 28.34, 0 16.25 M0 48.75 C1.28 39.14, -1.82 25.29, 0 16.25 M0 16.25 C-2.61 4.13, 2.02 -3.15, 16.25 0 M0 16.25 C1.36 1.65, 7.01 -2.47, 16.25 0" stroke="#1e1e1e" stroke-width="1" fill="none"></path></g><g transform="translate(922.2350017002649 188.8333333333332) rotate(0 108.5704574584961 17.5)"><text x="108.5704574584961" y="0" font-family="Virgil, Segoe UI Emoji" font-size="28px" fill="#343a40" text-anchor="middle" style="white-space: pre;" direction="ltr" dominant-baseline="text-before-edge">Aula: React 02</text></g><g stroke-linecap="round" transform="translate(896.3054591587592 249.0714285714286) rotate(0 137 32.5)"><path d="M4.33 3.76 C4.33 3.76, 4.33 3.76, 4.33 3.76 M4.33 3.76 C4.33 3.76, 4.33 3.76, 4.33 3.76 M0.78 13.93 C1.94 8.42, 11.41 3.08, 11.28 1.86 M0.78 13.93 C5.05 11.19, 6.26 5.76, 11.28 1.86 M2.49 18.07 C7.79 10.73, 12.76 3, 17.58 0.71 M2.49 18.07 C9.69 12.23, 11.95 4.18, 17.58 0.71 M2.23 24.46 C8.48 14.23, 16.05 5.8, 22.57 1.07 M2.23 24.46 C5.44 21.41, 10.23 15.93, 22.57 1.07 M2.62 30.11 C6.31 19.77, 19.55 14.67, 28.21 0.67 M2.62 30.11 C8.47 21.66, 20.02 11.41, 28.21 0.67 M3.02 35.75 C16.46 23, 23.08 9.34, 33.2 1.03 M3.02 35.75 C14.74 23.14, 23.94 12.39, 33.2 1.03 M2.76 42.15 C10.27 34.53, 19.77 20.57, 38.84 0.64 M2.76 42.15 C9.89 31.91, 20.68 22.82, 38.84 0.64 M3.15 47.79 C13.37 33.4, 32.77 18.01, 43.83 1 M3.15 47.79 C12.32 34.45, 22.34 25.77, 43.83 1 M1.58 55.7 C19.78 35.29, 35.01 11.7, 48.81 1.36 M1.58 55.7 C18.74 37.19, 35.16 14.01, 48.81 1.36 M3.94 59.08 C17.05 47.61, 25.52 33.73, 54.46 0.96 M3.94 59.08 C21.97 41.2, 36.41 23.9, 54.46 0.96 M6.3 62.45 C17.42 49.44, 35.17 33.17, 59.44 1.32 M6.3 62.45 C20.87 45.07, 37.43 30.63, 59.44 1.32 M9.32 65.08 C29.15 38.95, 52.91 18.37, 65.09 0.93 M9.32 65.08 C19.6 51.38, 31.83 38.74, 65.09 0.93 M13.65 66.19 C37.73 40.73, 60.15 16.58, 70.07 1.29 M13.65 66.19 C37.5 38.76, 60.11 16.34, 70.07 1.29 M19.3 65.8 C33 43.92, 54.99 25.89, 75.72 0.89 M19.3 65.8 C35.35 43.12, 57.53 21.97, 75.72 0.89 M24.28 66.16 C44.04 47.03, 62.32 24.12, 80.7 1.25 M24.28 66.16 C44.76 40.81, 64.24 19.19, 80.7 1.25 M29.93 65.76 C46.05 49.54, 53.14 30.17, 86.35 0.86 M29.93 65.76 C46.01 51.18, 56.85 36.31, 86.35 0.86 M34.91 66.12 C55.56 38.72, 79.88 13.4, 91.33 1.22 M34.91 66.12 C48.38 49.02, 60.16 34.75, 91.33 1.22 M40.56 65.73 C56.65 47.56, 74.44 24.7, 96.98 0.83 M40.56 65.73 C54.67 51.09, 67.82 34.96, 96.98 0.83 M45.54 66.09 C69.65 38.84, 89.89 15.47, 101.96 1.19 M45.54 66.09 C62.93 45.18, 76.77 27.53, 101.96 1.19 M51.19 65.7 C62.8 54.13, 69.4 37.8, 107.61 0.79 M51.19 65.7 C66.47 49.18, 81.95 29.72, 107.61 0.79 M56.17 66.06 C69.72 46.19, 91.89 30.67, 112.59 1.15 M56.17 66.06 C74.27 46.89, 89.39 27.25, 112.59 1.15 M61.82 65.66 C81 44.7, 90.44 30.89, 118.24 0.76 M61.82 65.66 C83.57 43.59, 103.54 19.39, 118.24 0.76 M66.8 66.02 C78.61 56.39, 91.56 40.04, 123.22 1.12 M66.8 66.02 C79.47 48.27, 94.43 31.1, 123.22 1.12 M71.79 66.38 C85.43 49.16, 98.63 34.72, 128.87 0.72 M71.79 66.38 C86.71 50.15, 99.25 35.97, 128.87 0.72 M77.43 65.99 C96.57 41.28, 121.05 15.36, 133.85 1.08 M77.43 65.99 C88.02 52.26, 102.41 36.53, 133.85 1.08 M82.42 66.35 C98.07 46.92, 122.95 22.13, 138.84 1.44 M82.42 66.35 C95.7 52.54, 107.77 36.2, 138.84 1.44 M88.06 65.95 C104.88 45.24, 123.18 28.79, 144.48 1.05 M88.06 65.95 C102.54 49.59, 119.58 28.69, 144.48 1.05 M93.05 66.31 C107.32 45.14, 125.19 29.67, 149.47 1.41 M93.05 66.31 C117.38 38.47, 139.37 15.47, 149.47 1.41 M98.69 65.92 C106.93 50.13, 121.79 33.5, 155.11 1.01 M98.69 65.92 C115 49.29, 127.96 27.45, 155.11 1.01 M103.68 66.28 C112.78 50.53, 127.19 42.93, 160.1 1.37 M103.68 66.28 C118.22 49.16, 129.25 37.53, 160.1 1.37 M109.32 65.88 C123.18 49.65, 145.22 23.43, 165.74 0.98 M109.32 65.88 C128.37 40.91, 150.43 16.17, 165.74 0.98 M114.31 66.24 C122.95 49.74, 139.76 38.48, 170.73 1.34 M114.31 66.24 C133.12 47.38, 151.77 24.24, 170.73 1.34 M119.95 65.85 C140.17 43.19, 158.43 22.62, 176.38 0.94 M119.95 65.85 C131.71 51.06, 143.11 36.64, 176.38 0.94 M124.94 66.21 C145.58 45.69, 159.96 23.81, 181.36 1.3 M124.94 66.21 C142.02 45.13, 157.69 26.83, 181.36 1.3 M130.58 65.81 C148.82 47.45, 161.48 32.41, 187.01 0.91 M130.58 65.81 C143.61 48.91, 156.1 34.2, 187.01 0.91 M135.57 66.17 C151.05 48.17, 172.11 21.48, 191.99 1.27 M135.57 66.17 C152.67 47.61, 166.28 29.42, 191.99 1.27 M141.21 65.78 C155.07 49.62, 162.53 39.03, 197.64 0.88 M141.21 65.78 C156.79 45.18, 176.72 25.15, 197.64 0.88 M146.2 66.14 C161.2 43.52, 181.51 27.31, 202.62 1.24 M146.2 66.14 C161.57 49.31, 178.1 29.61, 202.62 1.24 M151.84 65.75 C169.43 48.48, 181.05 32.31, 208.27 0.84 M151.84 65.75 C168.35 46.83, 184.02 26.94, 208.27 0.84 M156.83 66.11 C165.68 52.46, 185.9 31.67, 213.25 1.2 M156.83 66.11 C175.9 43.39, 190.52 25.34, 213.25 1.2 M161.82 66.47 C178.42 49.02, 191.21 32.44, 218.9 0.81 M161.82 66.47 C182.19 44.7, 200.33 22.08, 218.9 0.81 M167.46 66.07 C189.37 42.48, 203.82 24.47, 223.88 1.17 M167.46 66.07 C188.78 42.56, 207.32 18.28, 223.88 1.17 M172.45 66.43 C187.6 46.9, 200.22 35.13, 228.87 1.53 M172.45 66.43 C191.05 43.3, 207.94 21.73, 228.87 1.53 M178.09 66.04 C200.74 40.97, 218.71 20.61, 234.51 1.13 M178.09 66.04 C197.59 42.69, 218.76 18.94, 234.51 1.13 M183.08 66.4 C195.42 50.5, 210.35 37.98, 239.5 1.49 M183.08 66.4 C197.73 49.33, 209.54 36.1, 239.5 1.49 M188.72 66 C205.36 47.79, 225.39 25.22, 245.14 1.1 M188.72 66 C204.08 48.44, 215.9 34.78, 245.14 1.1 M193.71 66.36 C206.8 55.1, 217.08 39.27, 250.13 1.46 M193.71 66.36 C208.32 51.92, 220.8 34.81, 250.13 1.46 M199.35 65.97 C215.43 47.02, 240.5 25.85, 255.77 1.06 M199.35 65.97 C214.22 47.93, 230.76 28.45, 255.77 1.06 M204.34 66.33 C218.03 51.32, 232.67 38.68, 261.42 0.67 M204.34 66.33 C223.6 48.38, 238.21 26.6, 261.42 0.67 M209.98 65.93 C223.18 48.86, 236.25 39.98, 265.75 1.78 M209.98 65.93 C228.92 44.3, 252.02 20.05, 265.75 1.78 M214.97 66.29 C230.78 44.32, 252.93 24.82, 269.42 3.65 M214.97 66.29 C228.04 53.56, 236.75 41.03, 269.42 3.65 M220.61 65.9 C232.2 47.32, 253.76 31.24, 271.78 7.03 M220.61 65.9 C239.14 47.01, 255.83 26.45, 271.78 7.03 M225.6 66.26 C243.36 49.05, 260.98 30.55, 274.15 10.41 M225.6 66.26 C237.55 54.45, 251.35 39.21, 274.15 10.41 M231.24 65.86 C244.04 51.76, 250.95 40.47, 274.54 16.05 M231.24 65.86 C245.07 51.2, 255.84 35.05, 274.54 16.05 M236.23 66.22 C248.36 57.08, 257.88 40.22, 274.28 22.45 M236.23 66.22 C243.72 59.04, 253.93 49.47, 274.28 22.45 M241.87 65.83 C251.94 55.77, 257.6 48.59, 274.67 28.09 M241.87 65.83 C251.63 54.7, 264.46 39.58, 274.67 28.09 M246.86 66.19 C254.4 58.99, 262.54 50.81, 274.41 34.49 M246.86 66.19 C257.52 55.37, 269.44 43.43, 274.41 34.49 M251.85 66.55 C262.78 55.44, 263.36 54.58, 274.81 40.14 M251.85 66.55 C257.6 57.22, 267.67 48.09, 274.81 40.14 M258.15 65.4 C261.1 58.86, 261.59 56.84, 275.2 45.78 M258.15 65.4 C262.8 58.82, 265.27 54.66, 275.2 45.78 M265.76 62.74 C270.91 56.74, 272.08 56.48, 274.29 52.93 M265.76 62.74 C268.16 59.78, 273.19 54.2, 274.29 52.93" stroke="#e9ecef" stroke-width="0.5" fill="none"></path><path d="M16.25 0 M16.25 0 C92.29 0.74, 171.61 -1.42, 257.75 0 M16.25 0 C106.31 -2.32, 198.35 0.8, 257.75 0 M257.75 0 C270.99 0.61, 275.04 3.07, 274 16.25 M257.75 0 C273.07 1.63, 270.98 1.55, 274 16.25 M274 16.25 C274.97 30.66, 274.38 43.83, 274 48.75 M274 16.25 C275.99 22.08, 273.52 27.42, 274 48.75 M274 48.75 C270.52 62.23, 267.67 65.91, 257.75 65 M274 48.75 C277.28 55.23, 268.7 67.27, 257.75 65 M257.75 65 C195.3 66.44, 134.52 70.16, 16.25 65 M257.75 65 C201.03 65.12, 142.18 66.29, 16.25 65 M16.25 65 C2 64.5, -3.42 56.27, 0 48.75 M16.25 65 C1.46 66.84, 1.48 63.89, 0 48.75 M0 48.75 C4.42 37.08, 3.01 28.23, 0 16.25 M0 48.75 C1.3 39.65, 0.79 29.2, 0 16.25 M0 16.25 C2.82 1.69, 3.26 -3.99, 16.25 0 M0 16.25 C-1.96 9.69, 5.48 0.35, 16.25 0" stroke="#1e1e1e" stroke-width="1" fill="none"></path></g><g transform="translate(925.1689998081732 264.0714285714286) rotate(0 108.13645935058594 17.5)"><text x="108.13645935058594" y="0" font-family="Virgil, Segoe UI Emoji" font-size="28px" fill="#343a40" text-anchor="middle" style="white-space: pre;" direction="ltr" dominant-baseline="text-before-edge">Aula: React 03</text></g><g stroke-linecap="round"><g transform="translate(882.3054591587592 113.57142857142861) rotate(0 -208.0051773469895 31.97963671388277)"><path d="M2.77 -2.69 C-49.29 -1.7, -241.62 -7.54, -311.88 4.12 C-382.14 15.77, -401.35 56.72, -418.78 67.26 M0.83 2.03 C-51.45 3.48, -243.92 -3.34, -312.97 6.72 C-382.01 16.79, -396.27 53.18, -413.45 62.41" stroke="#f08c00" stroke-width="1" fill="none"></path></g><g transform="translate(882.3054591587592 113.57142857142861) rotate(0 -208.0051773469895 31.97963671388277)"><path d="M-402.82 39.16 C-406.58 40.74, -406.66 52.4, -411.51 61.83 M-397.99 36.58 C-403.15 43.09, -406.17 51.66, -411.56 62.51" stroke="#f08c00" stroke-width="1" fill="none"></path></g><g transform="translate(882.3054591587592 113.57142857142861) rotate(0 -208.0051773469895 31.97963671388277)"><path d="M-389.32 54.61 C-397.14 51.58, -401.49 58.36, -411.51 61.83 M-384.48 52.03 C-393.96 53.81, -400.99 57.78, -411.56 62.51" stroke="#f08c00" stroke-width="1" fill="none"></path></g></g><mask></mask><g stroke-linecap="round"><g transform="translate(124.30545915875916 383.5714285714286) rotate(0 -11.100904767923083 19.316790226995977)"><path d="M2.53 0.76 C-0.95 6.86, -18.66 30.88, -23.03 36.9 M0.47 -1.3 C-3.11 5.16, -20.44 33.16, -24.74 39.94" stroke="#1e1e1e" stroke-width="1" fill="none"></path></g></g><mask></mask><g stroke-linecap="round" transform="translate(594.3054591587592 255.5714285714286) rotate(0 99 61)"><path d="M7.46 7.81 C7.46 7.81, 7.46 7.81, 7.46 7.81 M7.46 7.81 C7.46 7.81, 7.46 7.81, 7.46 7.81 M1.95 20.25 C3.84 15.86, 10.58 12.47, 17.7 2.13 M1.95 20.25 C10.15 13.45, 14.14 5.88, 17.7 2.13 M3 25.14 C8.15 16.99, 18.85 12.3, 23.34 1.74 M3 25.14 C6.3 19.94, 14.08 11.94, 23.34 1.74 M2.74 31.53 C11.8 18.53, 20.32 7.51, 29.64 0.59 M2.74 31.53 C14.75 17.96, 21.44 5.51, 29.64 0.59 M2.48 37.93 C8.69 28.01, 23.22 16.7, 33.32 2.46 M2.48 37.93 C11.38 24.53, 25.8 12.76, 33.32 2.46 M2.87 43.57 C14.66 35.89, 16.44 26.98, 38.3 2.82 M2.87 43.57 C15.89 28.07, 29.29 10.57, 38.3 2.82 M2.61 49.97 C16.94 32.47, 36.68 15.39, 43.95 2.43 M2.61 49.97 C14.47 39.31, 22.06 26.24, 43.95 2.43 M3.01 55.62 C14.45 41.75, 28.06 21.93, 48.93 2.79 M3.01 55.62 C18.24 36.51, 33.86 19.14, 48.93 2.79 M2.75 62.01 C21.94 39.12, 39.7 17.73, 54.58 2.39 M2.75 62.01 C18.28 41.38, 36.59 21.23, 54.58 2.39 M2.49 68.41 C19.77 46.73, 40.4 25.75, 59.56 2.75 M2.49 68.41 C19.62 46.09, 39.02 24.35, 59.56 2.75 M2.88 74.05 C23.54 54.65, 35.37 33.75, 65.21 2.36 M2.88 74.05 C19.14 52.84, 35.98 32.52, 65.21 2.36 M2.62 80.45 C21.18 53.33, 45.39 29.95, 70.19 2.72 M2.62 80.45 C21.42 59.66, 41.15 35.33, 70.19 2.72 M3.01 86.09 C19.64 65.61, 42.17 42.84, 75.84 2.32 M3.01 86.09 C28.86 58.8, 51.7 27.95, 75.84 2.32 M2.75 92.49 C24.69 65.29, 47.96 38.47, 80.82 2.68 M2.75 92.49 C28.5 62.16, 53.31 32.55, 80.82 2.68 M1.83 99.65 C36.83 66.32, 64.58 26.42, 86.47 2.29 M1.83 99.65 C26.64 65.11, 56.53 34.56, 86.47 2.29 M2.88 104.53 C37.3 63.34, 73.04 26.55, 91.45 2.65 M2.88 104.53 C37.32 65.5, 70.04 26.93, 91.45 2.65 M4.59 108.67 C21.83 83.24, 45.13 59.33, 97.1 2.25 M4.59 108.67 C23.15 84.24, 41.87 61.6, 97.1 2.25 M6.95 112.05 C30.43 79.29, 62.43 50.41, 102.08 2.61 M6.95 112.05 C38 72.77, 70.59 38.74, 102.08 2.61 M9.32 115.43 C41.82 76.18, 78.06 41.67, 107.73 2.22 M9.32 115.43 C39.23 81.1, 69.51 45.56, 107.73 2.22 M12.34 118.05 C41.84 84.51, 74.82 46.72, 112.71 2.58 M12.34 118.05 C51.52 70.7, 93.75 27.34, 112.71 2.58 M16.67 119.16 C47.89 86.61, 75.46 49.94, 118.36 2.18 M16.67 119.16 C45.02 82.33, 77.49 46.16, 118.36 2.18 M21 120.28 C50.54 88.18, 75.2 55.68, 123.34 2.54 M21 120.28 C44.62 92.33, 66.42 66.75, 123.34 2.54 M25.33 121.39 C58.95 91.85, 89.2 56.39, 128.99 2.15 M25.33 121.39 C67.98 74.34, 108.62 28.14, 128.99 2.15 M29.66 122.51 C52.78 97.31, 78.16 71.65, 133.97 2.51 M29.66 122.51 C55.64 92.12, 77.67 63.7, 133.97 2.51 M33.33 124.38 C69.47 81.54, 113.17 40.89, 139.62 2.12 M33.33 124.38 C78.22 78.45, 119.91 29.53, 139.62 2.12 M38.32 124.74 C70.43 88.4, 106.11 42.36, 144.6 2.48 M38.32 124.74 C73.21 82.3, 108.33 44.04, 144.6 2.48 M43.96 124.34 C76.27 90.29, 111.47 48.33, 150.25 2.08 M43.96 124.34 C66.14 97.76, 87.7 69.88, 150.25 2.08 M48.95 124.7 C92.27 79.64, 133.85 25.88, 155.23 2.44 M48.95 124.7 C79.38 93.31, 106.75 56.3, 155.23 2.44 M54.59 124.31 C79.57 90.36, 107.74 56.55, 160.22 2.8 M54.59 124.31 C95.57 74.74, 135.52 28.33, 160.22 2.8 M59.58 124.67 C96.57 85.41, 125.74 42.31, 167.83 0.14 M59.58 124.67 C86.8 99.83, 109.95 69.28, 167.83 0.14 M65.22 124.27 C91.54 91.82, 120.61 58.68, 172.16 1.26 M65.22 124.27 C102.09 87.27, 133.42 46.13, 172.16 1.26 M70.21 124.63 C94.43 99.22, 117.48 73.26, 176.49 2.37 M70.21 124.63 C110.65 83.21, 148.13 39.28, 176.49 2.37 M75.85 124.24 C95.39 92.77, 125.88 68.07, 180.82 3.49 M75.85 124.24 C97.92 98.61, 121.95 67.58, 180.82 3.49 M80.84 124.6 C117.86 75.93, 159.41 33.58, 185.16 4.6 M80.84 124.6 C121.13 74.51, 163.94 29.7, 185.16 4.6 M86.48 124.21 C108.53 92.83, 139.59 66.56, 188.83 6.47 M86.48 124.21 C114.29 94.24, 139.96 61.09, 188.83 6.47 M91.47 124.57 C115.56 96.22, 136.82 74.31, 191.85 9.1 M91.47 124.57 C126.33 83.26, 167.28 41.13, 191.85 9.1 M97.11 124.17 C131.05 91.51, 155.13 51.51, 194.21 12.47 M97.11 124.17 C136.17 82.91, 172.26 41.55, 194.21 12.47 M102.1 124.53 C122.85 100.56, 136.72 76.58, 195.92 16.61 M102.1 124.53 C121.11 103.41, 138.74 79.05, 195.92 16.61 M107.74 124.14 C142.68 87.35, 169.39 51.79, 196.97 21.5 M107.74 124.14 C142.96 87.17, 173.3 47.57, 196.97 21.5 M112.73 124.5 C134.84 93.99, 158.64 71.51, 199.33 24.88 M112.73 124.5 C138.32 93.18, 170.39 57.41, 199.33 24.88 M118.38 124.1 C145.93 91.95, 180.32 57.81, 199.07 31.27 M118.38 124.1 C141.55 93.02, 166.51 64.37, 199.07 31.27 M123.36 124.46 C155.06 87.56, 179.76 56.35, 199.46 36.92 M123.36 124.46 C144.94 100.38, 167.03 73.2, 199.46 36.92 M129.01 124.07 C149.92 97.07, 175.17 65.89, 199.2 43.31 M129.01 124.07 C153.78 96.54, 178.53 66.22, 199.2 43.31 M133.99 124.43 C151.97 98.08, 176.23 81.3, 199.6 48.96 M133.99 124.43 C153.06 103.03, 175.12 79.82, 199.6 48.96 M138.98 124.79 C160.71 104.62, 178.78 80.91, 199.34 55.35 M138.98 124.79 C152.48 108.77, 165.36 92.22, 199.34 55.35 M144.62 124.39 C164.39 110.7, 178.94 86.69, 199.73 61 M144.62 124.39 C161.84 102.77, 179.93 82.03, 199.73 61 M149.61 124.75 C167.82 109.95, 188.55 88.79, 199.47 67.4 M149.61 124.75 C160.33 110.38, 169.85 101.05, 199.47 67.4 M155.25 124.36 C167.5 109.26, 176.84 98.16, 199.86 73.04 M155.25 124.36 C162.43 115.03, 172.5 101.42, 199.86 73.04 M160.24 124.72 C170.93 108.55, 184.8 103.66, 199.6 79.44 M160.24 124.72 C174.55 107.37, 190.48 90.3, 199.6 79.44 M167.85 122.06 C174.31 111.5, 189.46 100.22, 200 85.08 M167.85 122.06 C177.03 110.23, 187.63 97.99, 200 85.08 M174.15 120.91 C182.27 105.65, 191.95 99.76, 199.08 92.23 M174.15 120.91 C182.47 113.43, 188.45 103.39, 199.08 92.23 M181.1 119.01 C181.88 112.77, 192.44 110.27, 196.85 100.89 M181.1 119.01 C186.89 112.36, 188.93 108.52, 196.85 100.89" stroke="#e9ecef" stroke-width="0.5" fill="none"></path><path d="M30.5 0 M30.5 0 C56.7 -1.48, 85.77 -1.17, 167.5 0 M30.5 0 C71.76 -3.19, 115.14 -1.14, 167.5 0 M167.5 0 C188.82 -0.15, 200.86 14.01, 198 30.5 M167.5 0 C190.98 -3.99, 200.05 9.26, 198 30.5 M198 30.5 C199.86 52.66, 195.82 65.89, 198 91.5 M198 30.5 C196.27 46.95, 196.1 64.06, 198 91.5 M198 91.5 C198.35 108.21, 191.6 122.33, 167.5 122 M198 91.5 C193.95 115.21, 189.22 122.41, 167.5 122 M167.5 122 C131.48 120.03, 102.59 121.61, 30.5 122 M167.5 122 C125.58 120.16, 81.81 120.12, 30.5 122 M30.5 122 C14.11 123.49, -2.58 108.4, 0 91.5 M30.5 122 C7.28 118.59, -0.21 107.88, 0 91.5 M0 91.5 C-2.99 76.45, -3.16 58.95, 0 30.5 M0 91.5 C-2.36 78.94, -0.7 64.6, 0 30.5 M0 30.5 C-2.7 12.8, 11.34 1.08, 30.5 0 M0 30.5 C-4.49 7.1, 12.5 1.36, 30.5 0" stroke="#868e96" stroke-width="1" fill="none"></path></g><g transform="translate(627.0431910923529 299.0714285714286) rotate(0 66.26226806640625 17.5)"><text x="66.26226806640625" y="0" font-family="Virgil, Segoe UI Emoji" font-size="28px" fill="#1e1e1e" text-anchor="middle" style="white-space: pre;" direction="ltr" dominant-baseline="text-before-edge">database</text></g><g stroke-linecap="round"><g transform="translate(362.30545915875916 369.5714285714286) rotate(0 114.08618396103378 -30.587078292332592)"><path d="M2.69 1.8 C40.06 -8.13, 185.48 -47.93, 222.1 -58.68 M0.71 0.3 C39.16 -10.55, 190.97 -52.75, 227.47 -62.97" stroke="#1e1e1e" stroke-width="1" fill="none"></path></g><g transform="translate(362.30545915875916 369.5714285714286) rotate(0 114.08618396103378 -30.587078292332592)"><path d="M205.63 -48.23 C210.33 -52.2, 210.09 -52.89, 227.73 -66.39 M202.54 -45.59 C211.67 -51.42, 218.89 -56.19, 229.26 -61.27" stroke="#1e1e1e" stroke-width="1" fill="none"></path></g><g transform="translate(362.30545915875916 369.5714285714286) rotate(0 114.08618396103378 -30.587078292332592)"><path d="M200.12 -68 C206.18 -67.63, 207.18 -63.89, 227.73 -66.39 M197.03 -65.36 C208 -63.94, 217.21 -61.56, 229.26 -61.27" stroke="#1e1e1e" stroke-width="1" fill="none"></path></g></g><mask></mask><g stroke-linecap="round"><g transform="translate(778.3054591587592 257.5714285714286) rotate(0 52.82383828099819 -56.048098955675925)"><path d="M1.02 -0.22 C19.38 -18.72, 89.47 -93.71, 107.52 -111.87 M-1.87 -2.81 C16.31 -20.92, 86.67 -90.68, 105.02 -109.26" stroke="#1e1e1e" stroke-width="1" fill="none"></path></g><g transform="translate(778.3054591587592 257.5714285714286) rotate(0 52.82383828099819 -56.048098955675925)"><path d="M92.03 -82.76 C92.45 -85.89, 98.87 -94.1, 102.83 -111.22 M91.48 -80.4 C96.05 -89.93, 98.21 -95.53, 106.35 -110.83" stroke="#1e1e1e" stroke-width="1" fill="none"></path></g><g transform="translate(778.3054591587592 257.5714285714286) rotate(0 52.82383828099819 -56.048098955675925)"><path d="M77.52 -97.26 C80.84 -97.51, 90.25 -102.73, 102.83 -111.22 M76.97 -94.91 C85.48 -100.22, 91.62 -101.84, 106.35 -110.83" stroke="#1e1e1e" stroke-width="1" fill="none"></path></g></g><mask></mask><g stroke-linecap="round"><g transform="translate(1333.1387924920928 139.3809523809528) rotate(0 1.8429497360629057 23.003752034318893)"><path d="M-1.9 -0.03 C-2.19 8.05, -0.96 40.89, 0.08 48.53 M2.27 -2.52 C2.73 4.77, 5.33 36.04, 5.63 44.53" stroke="#1e1e1e" stroke-width="1" fill="none"></path></g><g transform="translate(1333.1387924920928 139.3809523809528) rotate(0 1.8429497360629057 23.003752034318893)"><path d="M-3.74 20.86 C2.38 34.96, 1.88 40.95, 1.76 45.05 M-3.93 23.26 C-0.96 30.1, 3.41 36.78, 4.81 46.41" stroke="#1e1e1e" stroke-width="1" fill="none"></path></g><g transform="translate(1333.1387924920928 139.3809523809528) rotate(0 1.8429497360629057 23.003752034318893)"><path d="M12.2 19.88 C12.49 34.13, 6.17 40.47, 1.76 45.05 M12.01 22.29 C9.24 29.72, 7.88 36.74, 4.81 46.41" stroke="#1e1e1e" stroke-width="1" fill="none"></path></g></g><mask></mask><g stroke-linecap="round"><g transform="translate(1336.3655264268114 208.58037914463483) rotate(0 1.1236766951283244 22.05893705190465)"><path d="M1.24 -2.68 C0.97 4.55, -1.25 35.74, -1.12 44.4 M-1.53 2.04 C-1.03 9.45, 3.44 39.61, 3.78 46.8" stroke="#1e1e1e" stroke-width="1" fill="none"></path></g><g transform="translate(1336.3655264268114 208.58037914463483) rotate(0 1.1236766951283244 22.05893705190465)"><path d="M-10.28 21.83 C-6.28 32.99, 3.95 36.87, 1.77 45.63 M-4.63 26.85 C-2.16 32.9, -0.57 37.69, 2.73 47.11" stroke="#1e1e1e" stroke-width="1" fill="none"></path></g><g transform="translate(1336.3655264268114 208.58037914463483) rotate(0 1.1236766951283244 22.05893705190465)"><path d="M5.6 20.17 C4.55 31.99, 9.72 36.4, 1.77 45.63 M11.25 25.18 C9.24 31.75, 6.34 37, 2.73 47.11" stroke="#1e1e1e" stroke-width="1" fill="none"></path></g></g><mask></mask><g transform="translate(925.2923907440735 525.3271911797142) rotate(0 117.34848022460938 17.5)"><text x="0" y="0" font-family="Virgil, Segoe UI Emoji" font-size="28px" fill="#f08c00" text-anchor="start" style="white-space: pre;" direction="ltr" dominant-baseline="text-before-edge">Busca Semântica</text></g><g transform="translate(990.2671501239539 584.0835013347448) rotate(0 50.10993957519531 12.5)"><text x="0" y="0" font-family="Virgil, Segoe UI Emoji" font-size="20px" fill="#1e1e1e" text-anchor="start" style="white-space: pre;" direction="ltr" dominant-baseline="text-before-edge">Significado</text></g><g transform="translate(990.2671501239539 619.0835013347448) rotate(0 52.29994201660156 12.5)"><text x="0" y="0" font-family="Virgil, Segoe UI Emoji" font-size="20px" fill="#1e1e1e" text-anchor="start" style="white-space: pre;" direction="ltr" dominant-baseline="text-before-edge">Embeddings</text></g><g stroke-linecap="round" transform="translate(854.9535596860727 443.61367674659897) rotate(0 185.99024872490827 151.8785000504708)"><path d="M25.98 74.26 C25.98 74.26, 25.98 74.26, 25.98 74.26 M25.98 74.26 C25.98 74.26, 25.98 74.26, 25.98 74.26 M22.86 91.19 C26.62 78.09, 39.08 65.17, 60.04 40.06 M19.24 89.46 C33.59 72.28, 47.68 53.82, 61.06 41.37 M11.43 98.42 C30.06 79.23, 48.74 62.27, 67.01 33.38 M10.6 100.35 C24.87 85.66, 42.83 68.19, 72.18 36.75 M4.84 118.98 C28.5 91.64, 45.37 71.24, 79.39 28.63 M4.96 114.44 C22 93.09, 43.33 72.19, 80.37 29.6 M3.75 126.02 C35.84 90.09, 69.78 52.89, 88.32 22.18 M6.08 121.77 C27.05 100.45, 46.4 76.78, 90.25 27.07 M7.29 132.24 C27.68 98.13, 57.93 62.55, 95.71 21.99 M3.97 129.15 C39.92 90.9, 70.58 52.23, 98.29 20.83 M0.26 138.39 C22.63 109.17, 50.54 80.7, 106.96 16.71 M2.92 136.86 C37.15 100.8, 71.07 60.88, 108.39 14.32 M-0.71 145.38 C47.13 91.43, 86.11 44.57, 113.9 11.57 M2.5 144.95 C31.77 109.68, 63.88 76.18, 115.61 10.91 M-0.98 146.47 C29.35 118.62, 56.07 88.57, 121.99 9.49 M0.47 149.61 C46.59 97.3, 94.63 46.39, 124.22 13.09 M2.2 155.36 C32.93 119.14, 69.91 82.74, 130.66 9.95 M1.81 157.48 C45.22 102.5, 91.1 47.45, 128.75 9.6 M5.41 165.01 C40.02 115.2, 83.81 66.49, 140.29 11.22 M1.61 161.06 C45.26 111.7, 84.59 64.2, 136.41 8.21 M0.83 168.66 C50.84 110.73, 98.42 59.69, 144.93 7.17 M3.11 167.75 C40.15 119.94, 81.67 73.94, 142.46 6.88 M5.29 172.02 C28.62 136.92, 60.34 105.08, 152.14 2.75 M5.64 172.24 C41.96 124.05, 83.17 77.31, 151.97 2.9 M2.92 174.89 C35.46 141.51, 67.76 105.42, 158.01 5.55 M6.04 176.75 C62.52 107.54, 119.42 41, 158.19 2.12 M4.47 183.42 C46.69 137.73, 81.09 93.38, 162.04 -0.28 M6.18 182.08 C47.81 136.57, 90.21 85.35, 163.36 4.29 M5.97 184.78 C58.12 132.55, 102.19 78.18, 165.69 3.02 M8.53 187.81 C44.87 137.53, 86.48 90.91, 167.56 2.9 M6.12 192.42 C59.35 130.96, 109.65 75.56, 169.86 3.73 M10.28 190.78 C66.25 122.47, 124.66 57.88, 172.03 1.6 M12.59 194.23 C61.44 137.84, 111.11 84.57, 176.86 1.09 M9.28 198.19 C53.72 145.59, 99.6 94.22, 178.55 3.84 M12.99 203.47 C61.37 144.68, 103.83 92.32, 181.55 1.7 M11.18 200 C73.95 125.27, 139.1 52.62, 182.75 2.2 M13.9 208.31 C60.21 149.77, 115.84 95.11, 185.07 1.4 M12.28 207.7 C52.88 158.79, 92.8 112.98, 188.49 5.6 M13.19 207.52 C75.45 136.2, 142.71 58.08, 195.23 5.33 M14.68 209.67 C70.95 144.56, 126.19 81.49, 191.6 3.41 M15.15 215.72 C54.65 167.56, 89.94 124.68, 198.48 7.29 M18.1 213.85 C64.22 160.38, 112.53 105.56, 196.45 5.1 M18.9 213.85 C65.15 164, 113.42 110.02, 203.89 3.98 M18.45 216.49 C78.91 151.28, 136.48 85.85, 202.5 5.67 M23.47 220.29 C95.37 136.24, 164.77 52.92, 209.42 4.56 M21.13 219.31 C86.8 144.2, 155.91 67.78, 208.92 5.35 M24.25 222.19 C75.23 158.51, 133.17 95.25, 212.04 4.5 M22.57 222.57 C65.13 172.32, 107.31 123.63, 214.18 6.33 M27.79 228.89 C74.08 168.57, 121.12 113.15, 219.93 4.71 M24.38 228.15 C76.29 171.24, 127.1 110.83, 217.09 7.6 M26.81 232.49 C91.02 158.15, 153.69 84.74, 222.64 6.75 M27 230.64 C87.56 167.05, 142.73 101.47, 221.84 8.03 M32.78 236.31 C106.9 148.07, 177.63 63.23, 226.16 9.83 M31.53 235.3 C97.02 155.33, 167.76 75.59, 225.89 6.42 M30.97 236.14 C84.53 179.03, 135.06 113.99, 233.56 7.13 M30.99 236.6 C87.03 175.39, 138.58 114.81, 232.63 8.11 M33.55 239.25 C85.8 186.16, 130.91 131.01, 233.99 10.5 M35.91 241.74 C107.71 156.2, 180.98 70.7, 234.85 8.88 M34.99 245.98 C102.49 170.15, 168.2 99.48, 239.03 9.5 M36.36 243.78 C91.09 183.76, 145.28 120.38, 241.49 11.1 M38.81 247.56 C97.7 175.57, 157.22 111.7, 242.25 13.54 M39.4 246.88 C87.84 189.99, 137.53 133.85, 243.76 10.84 M43.12 248.61 C109.48 166.11, 182.33 84.91, 246.5 14.17 M43.54 251.49 C113.08 168, 184.54 87.79, 250.03 13.52 M45.3 251.6 C102.66 193.46, 154.66 129.58, 252.72 15.15 M45.53 252.1 C114.45 172.76, 182.73 94.73, 252.38 12.65 M49.26 256.87 C116.17 178.59, 187.04 101.98, 261.28 15.17 M48.22 254.38 C111.36 184.44, 174.59 113.26, 258.5 13.96 M54.87 257.73 C108.43 198.33, 156.83 136.3, 261.22 15.09 M51.95 257.38 C127.77 164.73, 208.22 75.27, 264.17 14.41 M52.73 258.73 C111.47 189.63, 171.29 124.91, 267.74 14.7 M55.43 260.96 C112.99 192.74, 173.65 124.67, 267.81 17.43 M56.06 261.25 C112.51 197.99, 166.33 139.9, 272.76 18.98 M58.93 261.33 C123 188.96, 183.7 118.77, 271.96 17 M62.48 264.21 C134.14 182.92, 197.49 104.9, 276 20.35 M62.97 265.72 C145.44 172.52, 225.43 78.95, 277.01 17.51 M63.53 267.79 C112.83 206.66, 162.47 151.79, 276.29 18.84 M65.6 267.12 C110.24 214.4, 156.48 163.67, 278.9 20.72 M67.86 267.37 C122.74 200.11, 178.89 136.47, 280.8 25.55 M67.01 268.74 C121.08 214.68, 169.94 157.6, 282.97 22.57 M71.78 273.62 C128.29 210.11, 179.76 145.7, 288.68 25.63 M72.31 272.53 C130.37 207.41, 185.61 143.88, 285.42 25.95 M76.7 274.71 C149.5 183.15, 225.86 92.9, 287.62 26.96 M73.7 274.61 C126.46 219.7, 176.04 163, 288.31 27.37 M76.6 277.2 C148.69 197.9, 216.81 117.69, 291.74 28.81 M78.43 277.33 C154.07 190.44, 231.67 99.53, 293.96 29.99 M80.94 279.25 C163.94 183.75, 246.22 90.78, 299.1 33.2 M82.76 279.12 C141.84 206.33, 202.01 136.4, 297.48 31.57 M85.91 278.94 C162.11 189.63, 237.4 103.32, 302.16 35.68 M86.38 281.65 C131.14 229.06, 177.09 173.86, 300.41 34.72 M90.88 280.82 C169.11 192.18, 247.75 104.17, 300.67 35.33 M90.16 282.61 C152.67 210.4, 215.28 137.97, 303.72 36.35 M95.24 284.44 C151.11 219.61, 206.05 158.18, 306.23 37.85 M92.19 282.37 C170.56 194.82, 243.78 108.37, 307.24 36.42 M94.77 283.1 C140.63 232.96, 185.34 179.69, 311.23 38.07 M98.53 285.61 C148.23 223.05, 201.41 162.83, 310.93 41.23 M99.25 287 C180.47 196.63, 258.87 107.66, 315.69 43.79 M101.27 284.53 C152.59 225.81, 204.23 165.95, 314.7 43.25 M104.13 286.32 C170.14 208.61, 241.24 128.18, 317.89 42.88 M106.07 288.46 C179.11 206.63, 249 123.92, 316.5 45 M109.14 289.08 C163.47 233.57, 216.03 171.79, 318.59 44.64 M108.44 288.4 C155.53 239.39, 200.36 184.48, 319.89 47.97 M110.99 291.58 C195.08 197.2, 276.19 102.73, 325.07 48.89 M112.04 291.45 C161.55 233.8, 210.55 176.26, 323.29 50.84 M120.01 290.33 C179.33 213.39, 248.16 139.5, 325.05 51.88 M116.46 292.62 C191.5 209.47, 263.65 127.78, 325.21 52.94 M124.67 291.58 C189.01 219.39, 258.84 141.88, 326.27 57.73 M121.68 292.63 C175.05 238.27, 224.15 180.68, 329.45 55.87 M127.4 293.44 C203.93 201.36, 284.67 111.48, 331.83 60.37 M126.48 295.8 C193.59 216.5, 262.92 135.66, 329.2 59.77 M131.99 294.14 C212.54 200.28, 295.04 111.43, 334.03 61.44 M130.37 295.8 C196.92 220.53, 261.43 147.17, 334.28 62.94 M137.3 299.88 C203.84 216.2, 273.17 134.05, 334.75 63.56 M135.06 296.36 C188.28 233.89, 242.01 170.84, 335.16 66.52 M136.06 299.16 C197.87 227.79, 258.61 161.32, 339.57 65.6 M138.32 297.31 C186.63 240.57, 234.66 187.43, 338.96 68.48 M144.24 297.52 C189.93 243.27, 241.94 184.24, 343.88 72.95 M142.04 299.25 C186.3 248.24, 229.96 198.56, 341.86 71.13 M148.52 302.72 C197.24 243.54, 240.92 192.43, 343.85 75.42 M146.72 300.2 C197.91 242.44, 250.44 184.58, 345.14 75.24 M154.07 301.08 C199.27 241.32, 252.51 186.03, 346.01 74.88 M152 299.9 C201.66 244.43, 253.17 187.23, 347.7 78.73 M155.83 299.86 C213.13 236.25, 268.34 173.89, 349.2 80.96 M157.62 301.46 C204.53 243.18, 253.09 183.62, 350.53 79.4 M160.27 300.77 C212.58 242.16, 264.52 182.3, 353.41 86.61 M160.7 303.98 C214.3 242.72, 265.88 183.08, 351.53 83.42 M168.71 300.6 C235.87 215.73, 310.27 131.09, 355.14 84.66 M166.32 303.2 C241.47 219.16, 312.75 136.3, 354.9 88.13 M169.18 306.85 C227.44 236.45, 286.29 170.4, 355.24 92.98 M169.87 305.96 C227.05 239.73, 285.99 172.65, 355.6 91.79 M173.83 307.32 C240.42 223.79, 306.38 146.06, 358.44 95.35 M173.67 306.01 C243.07 225.95, 311.32 142.95, 355.85 96.67 M180.06 304.86 C243.04 229.75, 311.62 155.44, 362.19 96.64 M177.54 305.3 C228.17 251.24, 274.91 195.76, 357.94 97.64 M186.35 309.35 C250.61 232.08, 312.38 160.41, 360.82 102.34 M183.21 308.86 C236.63 245.8, 290.81 181.93, 361.33 103.03 M188.06 305.6 C238.88 252.14, 290.71 187.56, 365.89 105.3 M189.26 306.97 C248.38 237.53, 310.79 168.54, 364.92 106.11 M193.7 308.49 C255.98 238.66, 314.39 170.13, 363.48 111.87 M195.25 305.29 C263.17 230.63, 329.24 152.94, 363.88 109.8 M199.53 307.23 C256.06 243.11, 314.31 174.78, 366.83 115.35 M203.84 305.83 C243.31 256.75, 284.15 210.48, 368.6 112.97 M209.86 303.94 C272.57 230.21, 335.9 157.84, 366.67 116.08 M209.78 304.18 C271.05 232.34, 332.89 160.03, 369.73 119.72 M217.64 302.67 C254.07 261.03, 288.24 223.25, 371.37 121.29 M215.18 302.56 C274.44 233.23, 335.71 162.35, 372.52 122.62 M220.68 300.98 C255.96 258.14, 289.03 218.07, 370.23 124.78 M220.65 301.82 C255.07 263.49, 285.6 224.8, 372.46 127 M228.41 298.72 C266.37 258.99, 297.85 219.55, 374.91 133.13 M227.1 302.13 C263.53 258.92, 298.34 221.5, 370.46 134.41 M233.98 300.29 C278.61 243.18, 329.67 190.79, 374.97 137.98 M232.2 298.19 C275.31 248.3, 317.79 198.26, 371.75 140.17 M238.18 299.24 C289.08 233.87, 341.32 172.62, 369.76 147.02 M240.03 297.07 C266.88 265.94, 293.71 234.77, 374.15 143.72 M248 295.58 C293.35 240.04, 345.53 190.09, 369.09 150.65 M249.54 293.96 C283.09 255.44, 318.69 213.12, 373.86 148.93 M253.55 291.87 C283.16 265.01, 308.44 234.23, 369.7 155.58 M254.62 291.5 C297.35 244.23, 338.28 194.99, 373.18 156.03 M265.53 287.64 C307.16 243.15, 341.17 193, 374.78 165.79 M261.61 289.88 C292.08 257.23, 319.88 221.13, 373.36 163.69 M271.38 286.46 C306.73 241.24, 351.33 194.57, 375.44 171.88 M270.92 289.09 C298.04 259.29, 324.54 226.35, 373.91 168.76 M276.37 287.93 C307.76 244.67, 342.57 209.02, 372.51 179.41 M275.16 284.79 C312.18 245.77, 348.8 207.59, 369.75 180.41 M283.19 286.89 C310.57 254.69, 340.13 228.17, 366.54 187.47 M285.52 281.75 C303.79 263.03, 324.34 243.47, 365.98 190.86 M288.05 287.24 C310.41 251.75, 331.7 230.19, 362.75 203.37 M288.68 283.85 C306.33 266.37, 319.62 252.04, 361.7 200.31 M305.18 277 C318.35 251.7, 337.16 236.72, 357.06 209.74 M302.19 271.31 C316.03 259.63, 327.54 246.32, 356.82 208.18 M318.92 267.65 C324.07 254.26, 327.28 244.6, 342.51 234.76 M315.29 264.24 C328.25 251.25, 336.4 242.62, 345.28 233.57" stroke="#e9ecef" stroke-width="0.5" fill="none"></path><path d="M60.35 39.46 C71.46 28.23, 92.64 20.69, 109.32 14.32 C126.01 7.95, 142.76 2.95, 160.46 1.24 C178.15 -0.47, 197.12 1.7, 215.5 4.04 C233.87 6.39, 254.21 8.95, 270.71 15.29 C287.22 21.64, 301.79 31.65, 314.52 42.13 C327.24 52.62, 337.85 64.95, 347.07 78.2 C356.28 91.45, 365.5 106.8, 369.81 121.63 C374.12 136.47, 375.11 152.74, 372.93 167.2 C370.75 181.67, 363.75 194.67, 356.72 208.42 C349.69 222.18, 342.37 237.69, 330.75 249.74 C319.12 261.78, 302.32 272.97, 286.98 280.68 C271.65 288.38, 256.31 291.82, 238.74 295.98 C221.16 300.14, 200 305.82, 181.53 305.63 C163.05 305.44, 144.78 299.47, 127.87 294.85 C110.96 290.23, 95.21 286.07, 80.04 277.93 C64.86 269.78, 48.44 258.2, 36.81 245.99 C25.18 233.77, 16.29 218.71, 10.27 204.64 C4.24 190.56, 1.48 176.33, 0.67 161.55 C-0.14 146.76, 1.17 130.52, 5.43 115.92 C9.68 101.33, 6.11 92.02, 26.2 74 C46.28 55.98, 96.99 19.24, 125.93 7.8 C154.86 -3.63, 198.82 2.67, 199.81 5.37 M75.72 32.08 C87.12 21.93, 105.72 15.29, 123.08 10.43 C140.45 5.58, 161.43 4.23, 179.88 2.95 C198.34 1.68, 216.55 -0.94, 233.8 2.78 C251.04 6.5, 267.97 16.44, 283.35 25.26 C298.72 34.09, 314.02 44.87, 326.05 55.74 C338.08 66.61, 347.61 76.66, 355.52 90.49 C363.44 104.33, 371.3 123.87, 373.55 138.75 C375.8 153.62, 373.32 165.39, 369.02 179.76 C364.72 194.13, 356.39 212.08, 347.76 224.96 C339.13 237.84, 329.51 246.86, 317.24 257.06 C304.97 267.27, 290.54 278.89, 274.13 286.22 C257.72 293.54, 236.71 298.63, 218.77 301.04 C200.84 303.44, 184.98 301.89, 166.54 300.63 C148.1 299.37, 125.41 298.71, 108.13 293.47 C90.86 288.23, 76.4 279.22, 62.88 269.19 C49.35 259.16, 35.98 246.38, 27 233.3 C18.03 220.22, 13.17 205.55, 9.02 190.73 C4.87 175.9, 1.32 159.06, 2.11 144.36 C2.89 129.65, 7.7 116.67, 13.72 102.49 C19.74 88.3, 28.05 70.98, 38.21 59.23 C48.37 47.48, 68.23 36.98, 74.66 31.97 C81.09 26.96, 74.37 27.43, 76.79 29.18" stroke="#f08c00" stroke-width="1" fill="none"></path></g></svg>